#!OML:ASF F:\VICON\USERDATA\INSTALL\rory3\rory3.ASF
:FULLY-SPECIFIED
:DEGREES
344
root 3.87168 19.109 26.9087 93.919 -31.8377 -92.897
lowerback 19.4524 2.67476 19.7543
upperback -8.24943 10.3466 9.30403
thorax -18.7554 2.56262 -3.38709
lowerneck -10.3002 12.2955 3.79922
upperneck 2.04533 15.4087 10.1292
head 1.8631 8.01594 3.34481
rclavicle -1.30204e-014 -5.725e-014
rhumerus 4.70649 -32.839 -1.24279
rradius 17.9947
rwrist 17.087
rhand 13.8615 -1.84184
rfingers 7.12502
rthumb 38.7789 -27.4248
lclavicle -1.30204e-014 -5.725e-014
lhumerus 21.442 16.3295 -11.901
lradius 21.3515
lwrist -43.9212
lhand 7.53842 31.708
lfingers 7.12502
lthumb 32.788 58.7526
rfemur -6.69386 -189.371 -70.2739
rtibia 40.3655
rfoot -151.946 -114.038
rtoes 37.0423
lfemur -0.896797 -25.098 39.5285
ltibia 16.0555
lfoot -88.2403 -15.3701
ltoes 55.9314
345
root 3.86412 19.1172 26.8804 94.2259 -32.1408 -93.0334
lowerback 19.4971 2.80422 19.261
upperback -8.36175 10.4473 9.34762
thorax -19.0104 2.64113 -3.14833
lowerneck -9.74334 11.8492 2.66861
upperneck 0.962131 15.0796 10.7145
head 1.28439 7.80308 3.58099
rclavicle 3.27995e-014 1.27222e-014
rhumerus 4.94485 -35.8588 -1.75404
rradius 17.5482
rwrist 20.9763
rhand 11.9189 -0.78361
rfingers 7.12502
rthumb 36.944 -26.8625
lclavicle 3.27995e-014 1.27222e-014
lhumerus 21.5955 16.8875 -11.1506
lradius 21.3655
lwrist -44.0593
lhand 7.34144 31.685
lfingers 7.12502
lthumb 32.6006 58.7686
rfemur -6.52699 -189.367 -69.8706
rtibia 40.2471
rfoot -150.207 -113.953
rtoes 36.7762
lfemur -0.623636 -25.0967 39.2732
ltibia 15.6848
lfoot -88.3028 -15.7124
ltoes 55.9869
346
root 3.85715 19.131 26.8537 94.5583 -32.4358 -93.1837
lowerback 19.4009 2.87506 18.7429
upperback -8.33312 10.3876 9.42811
thorax -19.0377 2.6877 -2.79078
lowerneck -9.24575 11.3753 0.792401
upperneck -0.300478 14.7972 12.0344
head 0.551568 7.61898 4.20178
rclavicle 1.22253e-014 -9.54166e-014
rhumerus 5.50572 -39.1125 -2.69998
rradius 17.1373
rwrist 24.808
rhand 10.2697 0.0032686
rfingers 7.12502
rthumb 35.3821 -26.4627
lclavicle 1.22253e-014 -9.54166e-014
lhumerus 21.6331 18.5986 -9.94368
lradius 21.2513
lwrist -45.337
lhand 6.9171 31.0738
lfingers 7.12502
lthumb 32.1968 58.2401
rfemur -6.3152 -189.154 -69.4651
rtibia 40.141
rfoot -148.946 -113.846
rtoes 36.8964
lfemur -0.241842 -25.3833 38.9626
ltibia 15.1659
lfoot -88.6679 -15.973
ltoes 56.0403
347
root 3.85184 19.1465 26.8345 94.9279 -32.6234 -93.3439
lowerback 19.2914 2.81659 18.448
upperback -8.32406 10.1925 9.39408
thorax -19.0339 2.64157 -2.62352
lowerneck -8.63798 10.9124 -1.26415
upperneck -1.56429 14.5629 14.474
head -0.241072 7.45704 4.74411
rclavicle -1.799e-014 -4.77083e-014
rhumerus 6.0604 -41.9954 -4.07807
rradius 16.8859
rwrist 27.9632
rhand 8.85244 0.645804
rfingers 7.12502
rthumb 34.0371 -26.1297
lclavicle -1.799e-014 -4.77083e-014
lhumerus 20.989 17.5449 -10.8461
lradius 21.397
lwrist -43.5543
lhand 7.37468 31.6629
lfingers 7.12502
lthumb 32.6323 58.74
rfemur -6.01053 -188.734 -68.8875
rtibia 40.0338
rfoot -148.004 -113.783
rtoes 37.1298
lfemur 0.198054 -25.8089 38.7281
ltibia 14.5389
lfoot -89.2657 -15.4936
ltoes 55.9224
348
root 3.84601 19.1638 26.8122 95.3336 -32.7915 -93.4953
lowerback 19.1908 2.72461 18.2
upperback -8.34671 9.96632 9.29889
thorax -19.0569 2.56818 -2.53853
lowerneck -8.42529 10.5618 -0.842844
upperneck -1.92992 14.0813 14.2735
head -0.299245 7.18228 4.60377
rclavicle 5.36719e-015 -6.36111e-015
rhumerus 6.61225 -44.6459 -5.64085
rradius 16.4995
rwrist 30.8854
rhand 7.3547 1.0334
rfingers 7.12502
rthumb 32.6133 -26.0476
lclavicle 5.36719e-015 -6.36111e-015
lhumerus 20.3045 16.9981 -11.5097
lradius 21.5248
lwrist -42.6958
lhand 6.7652 31.0207
lfingers 7.12502
lthumb 32.0522 58.2162
rfemur -5.73785 -188.139 -68.3359
rtibia 40.0113
rfoot -147.558 -113.903
rtoes 37.4797
lfemur 0.719706 -26.3864 38.5472
ltibia 13.7125
lfoot -90.2287 -15.1697
ltoes 55.7786
349
root 3.83983 19.1803 26.7868 95.7347 -33.1775 -93.6005
lowerback 19.1218 2.70991 17.8297
upperback -8.39262 9.81821 9.06839
thorax -19.105 2.53529 -2.57526
lowerneck -9.61218 10.1873 2.56412
upperneck -0.441624 12.9633 10.8429
head 0.893151 6.67379 3.50734
rclavicle 6.36111e-015 -2.54444e-014
rhumerus 6.58429 -47.0973 -6.76288
rradius 16.2978
rwrist 33.6862
rhand 5.91981 1.29665
rfingers 7.12502
rthumb 31.2469 -26.0575
lclavicle 6.36111e-015 -2.54444e-014
lhumerus 19.925 16.9393 -11.6596
lradius 21.6236
lwrist -42.5682
lhand 6.13695 30.9928
lfingers 7.12502
lthumb 31.4538 58.3067
rfemur 141.229 -171.681 -247.861
rtibia 40.1054
rfoot -73.5417 -54.1255
rtoes 38.2422
lfemur 1.2411 -27.0139 38.1446
ltibia 12.7967
lfoot -91.0995 -15.3651
ltoes 55.6568
350
root 3.83602 19.195 26.7562 96.0785 -33.3385 -93.6876
lowerback 19.0463 2.76449 17.6302
upperback -8.35186 9.80916 9.04015
thorax -19.0342 2.56536 -2.50253
lowerneck -9.90498 9.52182 1.98211
upperneck -0.519156 12.1111 11.27
head 0.9028 6.2581 3.74526
rclavicle 8.74653e-015 -2.54444e-014
rhumerus 6.62665 -49.8995 -7.69891
rradius 16.0815
rwrist 36.7841
rhand 4.3837 1.76446
rfingers 7.12502
rthumb 29.782 -25.8621
lclavicle 8.74653e-015 -2.54444e-014
lhumerus 19.5428 17.3282 -11.1959
lradius 21.649
lwrist -42.9136
lhand 5.02928 30.9232
lfingers 7.12502
lthumb 30.3979 58.4377
rfemur 140.96 -171.731 -247.221
rtibia 40.228
rfoot -72.9761 -54.129
rtoes 37.9636
lfemur 1.95635 -27.421 38.0115
ltibia 11.5029
lfoot -91.6166 -16.3695
ltoes 55.7087
351
root 3.83556 19.2033 26.7248 96.383 -33.0834 -93.4077
lowerback 18.7637 2.73151 18.0535
upperback -8.43371 9.79859 9.02389
thorax -18.8951 2.51467 -2.69492
lowerneck -10.1462 8.72179 1.5908
upperneck -0.441931 11.0446 11.629
head 0.991791 5.73905 3.92986
rclavicle -2.89232e-014 8.90555e-014
rhumerus 6.3648 -52.4087 -8.37687
rradius 15.694
rwrist 39.6754
rhand 2.50392 2.41073
rfingers 7.12502
rthumb 27.9864 -25.5228
lclavicle -2.89232e-014 8.90555e-014
lhumerus 19.4575 18.6136 -10.1237
lradius 21.603
lwrist -44.1216
lhand 4.48683 31.2764
lfingers 7.12502
lthumb 29.8804 58.8853
rfemur 140.868 -172.611 -246.426
rtibia 40.3146
rfoot -73.7175 -54.6302
rtoes 37.1097
lfemur 2.03702 -27.1195 38.7414
ltibia 10.4238
lfoot -91.5773 -16.7
ltoes 55.871
352
root 3.8539 19.2476 26.764 96.5992 -33.6817 -93.0631
lowerback 18.7219 2.66173 17.9166
upperback -8.70545 9.66657 8.57513
thorax -19.1626 2.41432 -3.10133
lowerneck -11.5408 8.07154 3.6111
upperneck 1.00455 9.66828 10.5925
head 1.95356 5.12753 3.34049
rclavicle 2.3556e-014 -6.99722e-014
rhumerus 5.26825 -54.4009 -8.64357
rradius 15.4464
rwrist 42.2797
rhand 0.641202 3.07279
rfingers 7.12502
rthumb 26.2044 -25.1383
lclavicle 2.3556e-014 -6.99722e-014
lhumerus 19.2355 17.8502 -10.1662
lradius 21.5925
lwrist -43.8536
lhand 4.47341 31.5394
lfingers 7.12502
lthumb 29.8676 59.1506
rfemur 141.06 -172.679 -245.932
rtibia 40.1337
rfoot -73.6168 -55.1909
rtoes 36.9703
lfemur 1.72912 -27.2267 38.1767
ltibia 9.82114
lfoot -91.8915 -17.0301
ltoes 56.0946
353
root 3.8558 19.259 26.7419 96.7312 -34.4875 -92.8247
lowerback 18.5645 2.59244 17.2475
upperback -8.6775 9.34048 8.43704
thorax -19.1596 2.35842 -2.82732
lowerneck -11.9639 7.36379 3.30458
upperneck 1.56478 8.66508 10.7643
head 2.2476 4.66544 3.45753
rclavicle 2.28602e-014 4.77083e-014
rhumerus 5.32783 -56.9687 -9.65411
rradius 15.0893
rwrist 45.4324
rhand -1.20127 3.89668
rfingers 7.12502
rthumb 24.4393 -24.5644
lclavicle 2.28602e-014 4.77083e-014
lhumerus 18.4358 17.6302 -9.87364
lradius 21.4856
lwrist -43.9796
lhand 5.51257 30.4359
lfingers 7.12502
lthumb 30.8588 57.8642
rfemur 141.282 -172.317 -245.719
rtibia 39.9502
rfoot -73.0205 -55.4701
rtoes 36.6911
lfemur 1.68633 -27.428 37.414
ltibia 9.46107
lfoot -91.7934 -18.1369
ltoes 56.1251
354
root 3.86441 19.2567 26.7208 97.1551 -34.9815 -92.8779
lowerback 18.1992 2.62022 16.7229
upperback -8.50192 9.12717 8.57684
thorax -18.8548 2.38101 -2.31884
lowerneck -12.1873 6.57443 2.03262
upperneck 2.01523 7.72604 11.189
head 2.42675 4.22848 3.81732
rclavicle 2.51463e-014 -6.67916e-014
rhumerus 6.29916 -60.1484 -11.3319
rradius 14.6936
rwrist 48.9646
rhand -3.02725 4.63254
rfingers 7.12502
rthumb 22.6878 -24.0538
lclavicle 2.51463e-014 -6.67916e-014
lhumerus 16.5728 13.4557 -11.4921
lradius 22.0856
lwrist -39.712
lhand 5.25027 31.2689
lfingers 7.12502
lthumb 30.6087 58.7442
rfemur 141.047 -172.315 -245.256
rtibia 39.9639
rfoot -73.3268 -55.1385
rtoes 36.5111
lfemur 2.13002 -27.3804 36.9737
ltibia 8.42937
lfoot -91.8593 -18.5859
ltoes 56.0515
355
root 3.86436 19.256 26.6848 97.1023 -34.6232 -92.4465
lowerback 18.2973 2.52638 17.5492
upperback -8.72948 9.25607 8.45601
thorax -19.0328 2.29216 -2.90355
lowerneck -11.8656 5.25116 0.598707
upperneck 2.7307 6.04513 12.6714
head 2.3812 3.46278 4.06909
rclavicle -1.23246e-014 -9.22361e-014
rhumerus 4.60569 -62.3407 -10.917
rradius 14.5235
rwrist 51.3163
rhand -4.65063 5.20234
rfingers 7.12502
rthumb 21.1291 -23.6664
lclavicle -1.23246e-014 -9.22361e-014
lhumerus 16.0652 11.2864 -11.6182
lradius 22.2849
lwrist -38.0848
lhand 4.55909 31.0024
lfingers 7.12502
lthumb 29.9493 58.5988
rfemur 141.005 -173.741 -244.178
rtibia 40.0676
rfoot -75.2745 -54.4455
rtoes 36.0049
lfemur 1.50522 -27.6614 37.8214
ltibia 8.67048
lfoot -91.9214 -18.5783
ltoes 55.9713
356
root 3.86214 19.2668 26.6406 96.4534 -32.6706 -92.0394
lowerback 18.4688 2.18463 19.2011
upperback -8.32834 9.24175 9.44536
thorax -18.5789 2.17266 -2.56522
lowerneck -12.0906 4.06833 -1.29412
upperneck 3.5665 4.58609 13.6682
head 2.7005 2.79589 4.64067
rclavicle 5.56597e-015 6.99722e-014
rhumerus 6.2397 -65.1217 -13.2078
rradius 14.3379
rwrist 53.715
rhand -6.09314 5.91242
rfingers 7.12502
rthumb 19.7428 -23.105
lclavicle 5.56597e-015 6.99722e-014
lhumerus 14.4257 11.9348 -10.2951
lradius 21.9206
lwrist -38.6923
lhand 2.88374 30.3913
lfingers 7.12502
lthumb 28.3495 58.265
rfemur 174.61 2.76045 -241.632
rtibia 40.3174
rfoot -149.568 -115.497
rtoes 35.4006
lfemur 1.31114 -28.359 40.4456
ltibia 9.00358
lfoot -91.504 -18.7416
ltoes 55.8817
